<svg width="512" height="512" viewBox="0 0 512 512" fill="none" xmlns="http://www.w3.org/2000/svg">
  <rect width="512" height="512" fill="#2E7D32"/>
  <circle cx="256" cy="256" r="170" fill="#FFFFFF"/>
  <path d="M256 132C192 132 140 184 140 248C140 312 192 364 256 364C320 364 372 312 372 248C372 184 320 132 256 132ZM256 322C215 322 182 289 182 248C182 207 215 174 256 174C297 174 330 207 330 248C330 289 297 322 256 322Z" fill="#2E7D32"/>
  <path d="M256 98C256 98 316 153 316 216C316 253 289 282 256 282C223 282 196 253 196 216C196 153 256 98 256 98Z" fill="#C8E6C9"/>
  <path d="M162 365C189 334 221 319 256 319C291 319 323 334 350 365C327 398 295 416 256 416C217 416 185 398 162 365Z" fill="#1B5E20"/>
</svg>
