<svg width="512" height="512" viewBox="0 0 512 512" fill="none" xmlns="http://www.w3.org/2000/svg">
  <rect width="512" height="512" rx="112" fill="#2E7D32"/>
  <circle cx="256" cy="256" r="164" fill="#FFFFFF"/>
  <path d="M256 144C198 144 151 191 151 249C151 307 198 354 256 354C314 354 361 307 361 249C361 191 314 144 256 144ZM256 315C220 315 190 286 190 249C190 213 220 183 256 183C292 183 322 213 322 249C322 286 292 315 256 315Z" fill="#2E7D32"/>
  <path d="M256 117C256 117 307 164 307 218C307 249 284 274 256 274C228 274 205 249 205 218C205 164 256 117 256 117Z" fill="#C8E6C9"/>
  <path d="M174 354C198 328 226 315 256 315C286 315 314 328 338 354C318 382 289 398 256 398C223 398 194 382 174 354Z" fill="#1B5E20"/>
</svg>
